# xmcd
#
# Track frame offsets:
#	150
#	19778
#	34452
#	50599
#	64563
#	79371
#	94605
#	107380
#	125537
#	140565
#	158920
#	172217
#	189954
#	205876
#	206859
#	207490
#	208129
#	209057
#	209796
#	210466
#	211179
#
# Disc length: 2822 seconds
#
# Revision: 0
# Processed by: cddbd v1.5.2PL0 Copyright (c) Steve Scherf et al.
# Submitted via: audiograbber 1.83.01
#
DISCID=530b0415
DTITLE=Various Artist - CDX Volume 586 (January 6, 2014)
DYEAR=2014
DGENRE=Country
TTITLE0=Keith Urban - Cop Car
TTITLE1=Chris Young - Who I Am With You
TTITLE2=Joel Crouse - Why God Made Love Songs
TTITLE3=Ronnie Milsap - Summer Number Seventeen
TTITLE4=Ben Wasson - Adios - C'est La Vie
TTITLE5=Denny Strickland - Honky Tonk Highway
TTITLE6=Steve Scott - I Think About You 
TTITLE7=Smokey River Boys - I'm So Lonesome I Could Cry
TTITLE8=Blair Mathews - It's About Us  
TTITLE9=Amy Allen - Josie Rae
TTITLE10=James Robert Webb - Long Hot Winter
TTITLE11=Adrianna Freeman - No More
TTITLE12=Hannah Belle - Preacher's Daughter
TTITLE13=Hannah Bethel - Liner - Medicine
TTITLE14=Seth Hopkins - Liner - Home Town Country
TTITLE15=Seth Hopkins - Liner - Kickin' Country
TTITLE16=Seth Hopkins - Liner - My New Single
TTITLE17=Seth Hopkins - Liner - Super Country
TTITLE18=Seth Hopkins - Liner - The Best In Country Music
TTITLE19=Seth Hopkins - Liner - Today's Best Country
TTITLE20=Seth Hopkins - Liner - Today's Hot Country Music
EXTD=
EXTT0=
EXTT1=
EXTT2=
EXTT3=
EXTT4=
EXTT5=
EXTT6=
EXTT7=
EXTT8=
EXTT9=
EXTT10=
EXTT11=
EXTT12=
EXTT13=
EXTT14=
EXTT15=
EXTT16=
EXTT17=
EXTT18=
EXTT19=
EXTT20=
PLAYORDER=
